<svg xmlns="http://www.w3.org/2000/svg" viewBox="0 0 120 120" fill="currentColor">
  <path d="M60.5,39c-1.2,0-2.7-0.6-4.2-1.8c-1.5-1.2-2.4-2.9-2.7-4.8c0-0.3,0-0.6,0-0.9c0-0.3,0-0.6,0.1-0.9 c1.5,0.1,3,0.7,4.5,1.9c1.5,1.2,2.4,2.8,2.7,4.7c0,0.3,0,0.6,0,0.9C60.8,38.4,60.7,38.7,60.5,39z"/>
  <path d="M69.2,78.4c-1.8,3.9-3.9,7.5-6.3,10.8c-2.4,3.3-4.4,5.6-6,6.9c-2.5,2.3-5.2,3.5-8.1,3.6 c-2.1,0-4.6-0.6-7.5-1.8c-2.9-1.2-5.6-1.8-8.1-1.8c-2.6,0-5.4,0.6-8.4,1.8c-3,1.2-5.4,1.9-7.2,2c-2.8,0.2-5.6-1-8.3-3.5 c-1.7-1.5-3.8-3.9-6.3-7.3c-2.7-3.7-4.9-7.9-6.6-12.8C4.5,71.4,3.6,66.7,3.6,62c0-5.5,1.2-10.2,3.6-14.2c1.9-3.2,4.4-5.7,7.6-7.5 c3.2-1.8,6.7-2.8,10.4-2.9c2,0,4.7,0.6,8,1.9c3.3,1.3,5.4,1.9,6.4,1.9c0.7,0,3.2-0.8,7.3-2.3c3.9-1.4,7.2-2,9.9-1.7 c7.3,0.6,12.8,3.5,16.5,8.8c-6.5,3.9-9.7,9.4-9.6,16.4c0.1,5.4,2,9.9,5.8,13.5c1.7,1.7,3.6,3,5.8,3.9 C74.6,79.2,73.9,79.7,69.2,78.4z"/>
</svg>
